HIERARCHY
ROOT Hips
{
	OFFSET 0.000000 0.000000 0.000000
	CHANNELS 6 Xposition Yposition Zposition Zrotation Yrotation Xrotation 
	JOINT LHipJoint
	{
		OFFSET 0.000000 0.000000 0.000000
		CHANNELS 3 Zrotation Yrotation Xrotation
		JOINT LeftUpLeg
		{
			OFFSET 1.363060 -1.794630 0.839290
			CHANNELS 3 Zrotation Yrotation Xrotation
			JOINT LeftLeg
			{
				OFFSET 2.448110 -6.726130 0.000000
				CHANNELS 3 Zrotation Yrotation Xrotation
				JOINT LeftFoot
				{
					OFFSET 2.562200 -7.039590 0.000000
					CHANNELS 3 Zrotation Yrotation Xrotation
					JOINT LeftToeBase
					{
						OFFSET 0.157640 -0.433110 2.322550
						CHANNELS 3 Zrotation Yrotation Xrotation
						End Site
						{
							OFFSET 0.000000 0.000000 0.000000
						}
					}
				}
			}
		}
	}
	JOINT RHipJoint
	{
		OFFSET 0.000000 0.000000 0.000000
		CHANNELS 3 Zrotation Yrotation Xrotation
		JOINT RightUpLeg
		{
			OFFSET -1.305520 -1.794630 0.839290
			CHANNELS 3 Zrotation Yrotation Xrotation
			JOINT RightLeg
			{
				OFFSET -2.542530 -6.985550 0.000000
				CHANNELS 3 Zrotation Yrotation Xrotation
				JOINT RightFoot
				{
					OFFSET -2.568260 -7.056230 0.000000
					CHANNELS 3 Zrotation Yrotation Xrotation
					JOINT RightToeBase
					{
						OFFSET -0.164730 -0.452590 2.363150
						CHANNELS 3 Zrotation Yrotation Xrotation
						End Site
						{
							OFFSET 0.000000 0.000000 0.000000
						}
					}
				}
			}
		}
	}
}
MOTION
Frames: 30
Frame Time: 0.008333
4.413214 17.405178 0.648494 6.214546 -55.839167 9.122076 -9.771328 0.362863 4.192049 -4.401696 -13.809765 -16.688731 -2.197700 -1.152540 -3.956307 -0.002385 2.820554 11.062493 1.370700 0.000000 -41.716500 10.463653 -1.343237 -3.341552 4.974016 -20.957042 -6.145938 1.194556 1.189367 -5.494775 -4.159717 -24.765445 2.794368 -6.624700 0.000000 -54.303600
4.418301 17.406849 0.656828 6.111349 -55.674494 9.453405 -9.773400 0.351719 4.224607 -4.314245 -13.876957 -16.963463 -2.200046 -1.159742 -4.074197 -0.019087 2.682583 11.200117 1.336800 -0.000000 -41.710399 10.446266 -1.328921 -3.321587 5.130891 -20.895712 -6.390380 1.200546 1.211605 -5.541828 -4.204409 -24.952167 2.835730 -6.696300 0.000000 -54.174700
4.423971 17.408185 0.665455 6.010937 -55.553215 9.776739 -9.775669 0.343400 4.248993 -4.240858 -13.896563 -17.224374 -2.204195 -1.168045 -4.205813 -0.037009 2.532504 11.335757 1.298400 0.000000 -41.711400 10.430510 -1.313726 -3.293153 5.279913 -20.798149 -6.626697 1.203888 1.235935 -5.601988 -4.255604 -25.138895 2.883961 -6.764900 -0.000000 -54.053899
4.430592 17.409103 0.673947 5.917250 -55.476140 10.082101 -9.778248 0.335409 4.262935 -4.180556 -13.884195 -17.453755 -2.209156 -1.177641 -4.361345 -0.054076 2.391597 11.472564 1.262100 -0.000000 -41.721200 10.415966 -1.296787 -3.262866 5.414105 -20.672953 -6.847143 1.205019 1.260328 -5.670549 -4.310143 -25.314767 2.936096 -6.827099 0.000000 -53.947600
4.438107 17.409466 0.682146 5.823846 -55.434198 10.378421 -9.781670 0.327466 4.262985 -4.141388 -13.805751 -17.684751 -2.217488 -1.187126 -4.495213 -0.074854 2.212376 11.590999 1.212000 0.000000 -41.740100 10.403745 -1.280170 -3.227222 5.540042 -20.525175 -7.060623 1.205074 1.285492 -5.746629 -4.366757 -25.477984 2.987413 -6.881300 -0.000001 -53.848399
4.446871 17.409309 0.689579 5.742474 -55.429111 10.646708 -9.785236 0.316314 4.250885 -4.111491 -13.720290 -17.867192 -2.225258 -1.197914 -4.657458 -0.092289 2.067858 11.711227 1.172400 -0.000000 -41.768400 10.392491 -1.261462 -3.199772 5.644629 -20.370929 -7.251540 1.204442 1.307711 -5.821922 -4.419929 -25.613367 3.036223 -6.924300 0.000000 -53.775900
4.456771 17.408619 0.696252 5.664096 -55.451888 10.898298 -9.788333 0.300663 4.223480 -4.100523 -13.600167 -18.121770 -2.230039 -1.199511 -4.629282 -0.113500 1.908208 11.716981 1.127300 -0.000001 -41.804300 10.382840 -1.242360 -3.176233 5.736917 -20.216617 -7.431284 1.204666 1.328421 -5.895360 -4.467758 -25.719388 3.079774 -6.955600 0.000001 -53.717500
4.467823 17.407519 0.702083 5.590637 -55.497406 11.131515 -9.791359 0.281229 4.184370 -4.099860 -13.464734 -18.383105 -2.233550 -1.198006 -4.538239 -0.134120 1.755983 11.680403 1.083699 -0.000000 -41.844100 10.374226 -1.222594 -3.161227 5.816537 -20.072972 -7.599983 1.206652 1.346374 -5.962271 -4.506992 -25.790759 3.117188 -6.975400 -0.000000 -53.676700
4.480076 17.406102 0.707013 5.525064 -55.561956 11.343619 -9.794343 0.257762 4.137292 -4.100090 -13.342857 -18.621183 -2.234507 -1.195411 -4.436790 -0.150453 1.641900 11.630361 1.051800 -0.000000 -41.885900 10.365358 -1.201049 -3.160171 5.882120 -19.949273 -7.759553 1.211206 1.359698 -6.009986 -4.532538 -25.822384 3.143736 -6.984201 0.000000 -53.656900
4.493270 17.404542 0.711246 5.460600 -55.636726 11.545695 -9.798084 0.231652 4.083721 -4.102620 -13.216239 -18.835728 -2.235599 -1.193559 -4.353968 -0.164468 1.537653 11.589758 1.021900 -0.000000 -41.925499 10.355235 -1.177760 -3.170450 5.942126 -19.847261 -7.938577 1.219631 1.366032 -5.998202 -4.535483 -25.817175 3.135540 -6.984200 -0.000001 -53.649600
4.507293 17.402972 0.714917 5.399134 -55.719486 11.739738 -9.802716 0.202838 4.026552 -4.101280 -13.104576 -19.031435 -2.234693 -1.191503 -4.283436 -0.174853 1.460846 11.555214 1.000100 -0.000000 -41.959300 10.344424 -1.153988 -3.192783 5.997686 -19.773454 -8.106132 1.231689 1.371511 -5.999512 -4.530726 -25.777286 3.138619 -6.977600 0.000001 -53.654401
4.521951 17.401542 0.718280 5.339037 -55.806417 11.932296 -9.808389 0.171655 3.968636 -4.092706 -13.013703 -19.214313 -2.231423 -1.189446 -4.228921 -0.181212 1.413582 11.530315 0.987000 0.000000 -41.984700 10.332174 -1.129700 -3.225461 6.053027 -19.725829 -8.268547 1.247470 1.376730 -6.014563 -4.519170 -25.708129 3.154899 -6.966900 -0.000001 -53.667799
4.536908 17.400341 0.721571 5.280795 -55.894536 12.129242 -9.815320 0.138699 3.912158 -4.075032 -12.944814 -19.389039 -2.225918 -1.187725 -4.195601 -0.183982 1.393460 11.519888 0.982000 0.000000 -42.000000 10.318019 -1.104973 -3.266238 6.111529 -19.701033 -8.431649 1.266779 1.382218 -6.042730 -4.502072 -25.616331 3.185086 -6.954900 0.000000 -53.686200
4.552011 17.399452 0.725056 5.221836 -55.982292 12.336145 -9.823565 0.104276 3.859157 -4.046665 -12.899938 -19.561708 -2.218032 -1.186508 -4.184787 -0.183149 1.400667 11.525420 0.985300 -0.000000 -42.003600 10.301320 -1.079670 -3.312314 6.176151 -19.692061 -8.601892 1.289168 1.388345 -6.081858 -4.481036 -25.509494 3.228583 -6.943800 0.000000 -53.706500
4.567017 17.398894 0.728918 5.162018 -56.068262 12.557101 -9.832944 0.068977 3.811384 -4.007265 -12.877072 -19.736835 -2.208215 -1.186272 -4.198649 -0.179106 1.431567 11.548642 0.995800 -0.000000 -41.995000 10.281055 -1.052951 -3.360887 6.249067 -19.689632 -8.802026 1.314231 1.392102 -6.090040 -4.449770 -25.395415 3.260224 -6.936000 0.000000 -53.726200
4.581673 17.398692 0.733358 5.103064 -56.155113 12.794001 -9.843163 0.033170 3.770056 -3.956208 -12.879467 -19.920489 -2.195967 -1.186808 -4.230138 -0.171576 1.490824 11.584007 1.015400 -0.000000 -41.975100 10.257325 -1.024795 -3.409355 6.330095 -19.686076 -9.030072 1.341100 1.394748 -6.077816 -4.412816 -25.279811 3.286816 -6.932401 0.000000 -53.745100
4.595957 17.398804 0.738493 5.041648 -56.243817 13.050352 -9.854439 -0.002499 3.735013 -3.895822 -12.895897 -20.115589 -2.182384 -1.188640 -4.284241 -0.161623 1.566678 11.635160 1.040100 -0.000000 -41.944600 10.230753 -0.996264 -3.452938 6.420827 -19.671349 -9.278412 1.368509 1.398989 -6.069429 -4.378333 -25.172775 3.321337 -6.934400 0.000000 -53.760000
4.609569 17.399128 0.744408 4.981134 -56.336447 13.326870 -9.866550 -0.037427 3.706167 -3.828129 -12.920698 -20.325152 -2.168109 -1.192055 -4.358945 -0.149677 1.654069 11.699821 1.068500 0.000000 -41.905600 10.201868 -0.967659 -3.488438 6.520704 -19.636906 -9.546510 1.395440 1.405666 -6.069548 -4.349438 -25.080035 3.365221 -6.942899 -0.000000 -53.770001
4.622716 17.399648 0.751035 4.920492 -56.437093 13.619685 -9.879452 -0.071937 3.681967 -3.755088 -12.952082 -20.549591 -2.152817 -1.196449 -4.444012 -0.135938 1.754467 11.769886 1.101199 0.000000 -41.860100 10.170768 -0.938616 -3.515958 6.626418 -19.579187 -9.829236 1.421203 1.414805 -6.080811 -4.327823 -25.002932 3.419912 -6.956800 0.000000 -53.777800
4.635328 17.400236 0.758377 4.860663 -56.546906 13.927893 -9.893215 -0.105885 3.660924 -3.679766 -12.981354 -20.789146 -2.137345 -1.201941 -4.537647 -0.121105 1.859538 11.844290 1.135600 -0.000000 -41.810200 10.137881 -0.909459 -3.533846 6.736755 -19.492950 -10.124311 1.445091 1.426735 -6.105387 -4.315013 -24.944348 3.484982 -6.976200 -0.000000 -53.782000
4.647395 17.400819 0.766299 4.803370 -56.667722 14.248143 -9.907900 -0.139469 3.641051 -3.605027 -13.002389 -21.042606 -2.122181 -1.208347 -4.634904 -0.106088 1.963838 11.918740 1.169900 -0.000001 -41.758701 10.103599 -0.880164 -3.542513 6.849040 -19.377787 -10.428067 1.466773 1.441299 -6.143390 -4.311194 -24.903421 3.559599 -6.999900 -0.000001 -53.784700
4.659195 17.401340 0.774671 4.748848 -56.801230 14.574297 -9.923554 -0.173425 3.620012 -3.532809 -13.014662 -21.307626 -2.106922 -1.214855 -4.724874 -0.090922 2.069365 11.985410 1.205001 0.000000 -41.706800 10.067971 -0.850277 -3.544619 6.959443 -19.236890 -10.734560 1.486219 1.457775 -6.193133 -4.315006 -24.876001 3.642193 -7.026500 -0.000000 -53.789300
4.670778 17.401712 0.783418 4.694517 -56.945121 14.908353 -9.940784 -0.207714 3.595786 -3.467626 -13.002804 -21.582329 -2.093446 -1.222052 -4.815845 -0.077467 2.156585 12.050896 1.234200 -0.000001 -41.658000 10.031141 -0.820315 -3.539372 7.069346 -19.070728 -11.045708 1.503642 1.476166 -6.252388 -4.325495 -24.862110 3.729749 -7.055900 -0.000000 -53.791300
4.682177 17.401890 0.792367 4.644377 -57.100154 15.243949 -9.959422 -0.242927 3.566980 -3.409433 -12.972276 -21.864602 -2.080875 -1.228993 -4.895371 -0.065461 2.232591 12.106083 1.260000 0.000000 -41.613100 9.993204 -0.789697 -3.530834 7.175073 -18.887299 -11.356583 1.519502 1.495439 -6.316866 -4.339520 -24.854449 3.819517 -7.086100 -0.000000 -53.794900
4.693766 17.401862 0.801465 4.594705 -57.264734 15.579123 -9.979924 -0.279543 3.531805 -3.360784 -12.917918 -22.151480 -2.069708 -1.235416 -4.964172 -0.055838 2.289689 12.152073 1.279700 0.000000 -41.573400 9.953836 -0.758168 -3.521498 7.276382 -18.693154 -11.666632 1.534545 1.514837 -6.381469 -4.353984 -24.847975 3.908056 -7.116200 -0.000001 -53.800000
4.705408 17.401592 0.810580 4.548885 -57.436157 15.911237 -10.002087 -0.317691 3.489960 -3.321966 -12.841326 -22.441274 -2.059998 -1.241144 -5.019247 -0.048578 2.327945 12.187113 1.293300 -0.000000 -41.539900 9.911931 -0.724355 -3.514763 7.372626 -18.493634 -11.998279 1.549835 1.529075 -6.389576 -4.355287 -24.836753 3.960684 -7.145400 0.000000 -53.807500
4.717390 17.401101 0.819693 4.504736 -57.614094 16.239185 -10.026311 -0.357590 3.440841 -3.292955 -12.744209 -22.732957 -2.051393 -1.245673 -5.060047 -0.043769 2.347055 12.211147 1.300700 0.000000 -41.512400 9.868584 -0.689303 -3.511906 7.463725 -18.297257 -12.323159 1.565525 1.543316 -6.402021 -4.353649 -24.817786 4.013681 -7.173300 -0.000000 -53.817200
4.729701 17.400376 0.828777 4.463588 -57.796294 16.562260 -10.052605 -0.399196 3.384662 -3.273625 -12.629528 -23.026034 -2.043740 -1.248827 -5.086865 -0.041259 2.348080 12.224900 1.302000 -0.000000 -41.490301 9.823930 -0.652993 -3.514442 7.549962 -18.109528 -12.636966 1.582034 1.558196 -6.426853 -4.349165 -24.788475 4.071656 -7.199401 0.000000 -53.829700
4.742270 17.399409 0.837852 4.425920 -57.980609 16.882204 -10.081174 -0.442171 3.321918 -3.264743 -12.494632 -23.320114 -2.037771 -1.251057 -5.107939 -0.041313 2.324673 12.234542 1.295000 -0.000000 -41.474000 9.777992 -0.615574 -3.521938 7.633192 -17.932370 -12.941108 1.599642 1.574287 -6.467396 -4.341731 -24.749315 4.135967 -7.224600 -0.000000 -53.842599
4.755138 17.398249 0.846903 4.395268 -58.167408 17.194290 -10.111235 -0.486697 3.254119 -3.262102 -12.356990 -23.616247 -2.031438 -1.251414 -5.110856 -0.042340 2.296579 12.231254 1.286500 0.000000 -41.460800 9.730840 -0.576258 -3.537343 7.710554 -17.771300 -13.231455 1.618522 1.591219 -6.524497 -4.330457 -24.696516 4.207658 -7.247800 0.000000 -53.861500
